HIERARCHY
ROOT Hips
{
	OFFSET -0.001795 -0.223333 0.028219
	CHANNELS 6 Xposition Yposition Zposition Zrotation Yrotation Xrotation 
	JOINT LeftUpLeg
	{
		OFFSET 0.069520 -0.091406 -0.006815
		CHANNELS 3 Zrotation Yrotation Xrotation
		JOINT LeftLeg
		{
			OFFSET 0.034277 -0.375199 -0.004496
			CHANNELS 3 Zrotation Yrotation Xrotation
			JOINT LeftFoot
			{
				OFFSET -0.013596 -0.397961 -0.043693
				CHANNELS 3 Zrotation Yrotation Xrotation
				JOINT LeftToe
				{
					OFFSET 0.026358 -0.055791 0.119288
					CHANNELS 3 Zrotation Yrotation Xrotation
					End Site
					{
						OFFSET 0.000000 0.000000 0.000000
					}
				}
			}
		}
	}
	JOINT RightUpLeg
	{
		OFFSET -0.067670 -0.090522 -0.004320
		CHANNELS 3 Zrotation Yrotation Xrotation
		JOINT RightLeg
		{
			OFFSET -0.038290 -0.382569 -0.008850
			CHANNELS 3 Zrotation Yrotation Xrotation
			JOINT RightFoot
			{
				OFFSET 0.015774 -0.398415 -0.042312
				CHANNELS 3 Zrotation Yrotation Xrotation
				JOINT RightToe
				{
					OFFSET -0.025372 -0.048144 0.123348
					CHANNELS 3 Zrotation Yrotation Xrotation
					End Site
					{
						OFFSET 0.000000 0.000000 0.000000
					}
				}
			}
		}
	}
	JOINT Spine
	{
		OFFSET -0.002533 0.108963 -0.026696
		CHANNELS 3 Zrotation Yrotation Xrotation
		JOINT Spine1
		{
			OFFSET 0.005487 0.135180 0.001092
			CHANNELS 3 Zrotation Yrotation Xrotation
			JOINT Spine2
			{
				OFFSET 0.001457 0.052922 0.025425
				CHANNELS 3 Zrotation Yrotation Xrotation
				JOINT Neck
				{
					OFFSET -0.002778 0.213870 -0.042857
					CHANNELS 3 Zrotation Yrotation Xrotation
					JOINT Head
					{
						OFFSET 0.005152 0.064970 0.051349
						CHANNELS 3 Zrotation Yrotation Xrotation
						End Site
						{
							OFFSET 0.000000 0.000000 0.000000
						}
					}
				}
				JOINT LeftShoulder
				{
					OFFSET 0.078845 0.121749 -0.034090
					CHANNELS 3 Zrotation Yrotation Xrotation
					JOINT LeftArm
					{
						OFFSET 0.090977 0.030469 -0.008868
						CHANNELS 3 Zrotation Yrotation Xrotation
						JOINT LeftForeArm
						{
							OFFSET 0.259612 -0.012772 -0.027456
							CHANNELS 3 Zrotation Yrotation Xrotation
							JOINT LeftHand
							{
								OFFSET 0.249234 0.008986 -0.001171
								CHANNELS 3 Zrotation Yrotation Xrotation
								End Site
								{
									OFFSET 0.000000 0.000000 0.000000
								}
							}
						}
					}
				}
				JOINT RightShoulder
				{
					OFFSET -0.081759 0.118833 -0.038615
					CHANNELS 3 Zrotation Yrotation Xrotation
					JOINT RightArm
					{
						OFFSET -0.096012 0.032551 -0.009143
						CHANNELS 3 Zrotation Yrotation Xrotation
						JOINT RightForeArm
						{
							OFFSET -0.253742 -0.013329 -0.021401
							CHANNELS 3 Zrotation Yrotation Xrotation
							JOINT RightHand
							{
								OFFSET -0.255298 0.007772 -0.005559
								CHANNELS 3 Zrotation Yrotation Xrotation
								End Site
								{
									OFFSET 0.000000 0.000000 0.000000
								}
							}
						}
					}
				}
			}
		}
	}
}
MOTION
Frames: 8
Frame Time: 0.050000
-0.846040 0.870289 2.130476 178.352057 24.650072 -173.716927 25.742081 -23.145161 -42.946843 -40.890574 -25.088019 16.647655 47.976222 -16.035473 71.219745 0.000000 0.000000 0.000000 16.528089 -23.311412 -41.616190 -32.591058 -18.073035 40.751445 43.068981 25.702453 5.907203 0.000000 0.000000 0.000000 -60.322199 -28.705234 72.771296 4.859703 -4.190267 -34.755067 38.886445 60.215160 48.577675 16.126613 9.923783 -49.648272 0.000000 0.000000 0.000000 -1.906251 -32.181890 -45.946514 -29.386816 33.162160 -7.378451 -58.432466 -34.810590 12.261962 0.000000 0.000000 0.000000 25.816514 -11.655845 52.649156 15.694682 57.240562 -3.772377 -11.051797 49.626125 -8.341450 0.000000 0.000000 0.000000 
-0.845272 0.870548 2.133629 178.721596 24.130004 -173.577966 30.243247 -24.671326 -45.001432 -45.048569 -28.321028 15.199854 44.829614 -13.134142 76.704037 0.000000 0.000000 0.000000 17.415727 -23.597806 -42.345159 -33.734320 -18.244707 41.439539 43.216346 25.828037 7.231500 0.000000 0.000000 0.000000 -60.942671 -28.663069 72.331123 4.958776 -3.177977 -33.336550 39.720236 60.198767 48.737376 15.206571 9.940253 -50.555536 0.000000 0.000000 0.000000 -0.918118 -30.750739 -47.552887 -29.735443 34.735818 -8.424313 -61.543740 -32.294012 11.314706 0.000000 0.000000 0.000000 24.937884 -12.315332 52.646308 14.441090 56.670119 -3.906615 -9.843205 51.544805 -7.669805 0.000000 0.000000 0.000000 
-0.844869 0.871440 2.133176 178.839171 22.925947 -173.879695 35.427328 -26.406447 -47.492184 -50.002822 -32.148709 14.362801 42.166233 -3.829615 76.604451 0.000000 0.000000 0.000000 16.367512 -23.338220 -41.094052 -32.677665 -18.972646 41.249446 42.231565 24.743288 5.621622 0.000000 0.000000 0.000000 -59.978564 -29.047073 72.510269 4.033049 -3.277375 -33.429563 41.292624 60.238526 48.788330 14.737949 9.880095 -49.836311 0.000000 0.000000 0.000000 -1.385400 -30.700715 -51.752324 -25.740116 37.909080 -7.131666 -65.127845 -28.412940 11.385679 0.000000 0.000000 0.000000 24.959698 -13.568028 53.779645 11.629809 55.601775 -5.285935 -9.703224 54.138368 -8.002491 0.000000 0.000000 0.000000 
-0.845107 0.871728 2.129153 178.593475 21.167461 -174.991301 38.615151 -27.218826 -47.791089 -53.883474 -36.200886 13.370225 39.705391 5.852877 71.038289 0.000000 0.000000 0.000000 13.698964 -22.798436 -38.238581 -30.968129 -20.290219 40.980141 41.588041 23.159901 2.452761 0.000000 0.000000 0.000000 -61.247933 -29.322657 73.167003 4.742089 -2.627637 -32.269093 41.624907 60.951276 49.747069 15.215050 9.513087 -48.771323 0.000000 0.000000 0.000000 -1.343393 -29.952032 -56.144820 -22.039313 40.613982 -5.782890 -68.140231 -24.610741 11.180647 0.000000 0.000000 0.000000 25.603310 -13.847761 56.995169 4.856781 54.912888 -8.855709 -13.683804 55.366073 -11.323861 0.000000 0.000000 0.000000 
-0.846378 0.871144 2.122022 179.097416 20.184897 -175.372437 40.865228 -27.824811 -48.013097 -53.456139 -34.151932 14.610798 41.222604 -1.127894 76.763407 0.000000 0.000000 0.000000 12.589804 -22.164004 -36.638116 -31.017263 -21.344425 41.599786 41.505778 22.685550 1.177980 0.000000 0.000000 0.000000 -60.308917 -29.491007 72.347077 4.841882 -2.458481 -32.146596 42.800075 61.278843 50.751892 15.371428 9.336206 -49.127946 0.000000 0.000000 0.000000 -0.334900 -30.907064 -60.986038 -18.131381 43.041298 -4.118448 -68.979224 -19.791175 8.988394 0.000000 0.000000 0.000000 25.029643 -14.272020 61.039503 -1.945569 55.066108 -11.887690 -20.027830 54.410462 -15.072256 0.000000 0.000000 0.000000 
-0.849122 0.869615 2.112124 179.262582 18.958938 -176.456363 41.974663 -28.056744 -46.910134 -52.737741 -32.725896 15.328299 36.685437 -14.733202 89.230759 0.000000 0.000000 0.000000 10.618306 -21.719116 -34.470006 -31.987055 -22.862704 43.134221 42.846083 22.654345 0.304505 0.000000 0.000000 0.000000 -61.086396 -29.660039 72.561119 5.158548 -2.694329 -32.382427 45.688072 61.655745 53.579111 14.620780 8.985441 -49.101211 0.000000 0.000000 0.000000 0.397748 -30.687999 -66.849081 -11.217436 45.484978 -0.832861 -69.854456 -14.938503 7.304545 0.000000 0.000000 0.000000 23.622687 -13.966486 66.095678 -9.036267 55.887695 -15.149065 -28.102598 51.651266 -18.830979 0.000000 0.000000 0.000000 
-0.853924 0.868560 2.099814 179.733725 17.922687 -176.482050 42.756111 -28.372161 -46.708367 -51.537191 -30.336386 16.885924 22.187621 -28.266788 106.990952 0.000000 0.000000 0.000000 9.278945 -21.670130 -33.217380 -32.132139 -24.001443 44.128274 43.728200 22.670716 -0.342474 0.000000 0.000000 0.000000 -59.123505 -29.935884 71.073935 5.031444 -2.569899 -32.465046 45.466542 60.995752 53.211470 13.757141 8.266291 -49.150226 0.000000 0.000000 0.000000 0.292742 -31.039072 -74.177774 -2.526723 46.821843 4.143638 -69.819150 -9.581218 6.388449 0.000000 0.000000 0.000000 22.764574 -14.052853 71.980997 -17.377651 55.848577 -19.540840 -34.468193 45.610872 -20.374296 0.000000 0.000000 0.000000 
-0.861446 0.866579 2.085075 -179.638973 17.186053 -176.406058 42.663628 -28.319281 -45.434079 -50.746389 -28.086850 19.166046 18.033149 -30.962699 109.856319 0.000000 0.000000 0.000000 8.223524 -21.167125 -31.854128 -32.368909 -24.742032 44.590532 44.343181 22.586508 -1.641339 0.000000 0.000000 0.000000 -58.261540 -30.032998 69.590101 4.792783 -1.945057 -31.818651 45.332515 60.424355 52.887580 12.039176 7.983948 -50.509361 0.000000 0.000000 0.000000 0.657338 -30.310902 -81.207439 5.867555 47.242700 8.858827 -70.609378 -4.084716 4.679825 0.000000 0.000000 0.000000 20.504524 -13.201313 77.768654 -24.156199 55.962632 -22.837017 -40.331855 39.169126 -20.571974 0.000000 0.000000 0.000000 
